<svg width="35" height="33" viewBox="0 0 35 33" fill="none" xmlns="http://www.w3.org/2000/svg">
<path d="M17.4995 32.6523L14.962 30.3853C12.0162 27.7404 9.58076 25.4589 7.65576 23.5406C5.73076 21.6224 4.19951 19.9003 3.06201 18.3744C1.92451 16.8485 1.12972 15.4462 0.677637 14.1673C0.225553 12.8885 -0.000488281 11.5806 -0.000488281 10.2436C-0.000488281 7.51156 0.918262 5.23 2.75576 3.39894C4.59326 1.56788 6.88284 0.652344 9.62451 0.652344C11.1412 0.652344 12.5849 0.972053 13.9558 1.61147C15.3266 2.25089 16.5078 3.15189 17.4995 4.31447C18.4912 3.15189 19.6724 2.25089 21.0433 1.61147C22.4141 0.972053 23.8578 0.652344 25.3745 0.652344C28.1162 0.652344 30.4058 1.56788 32.2433 3.39894C34.0808 5.23 34.9995 7.51156 34.9995 10.2436C34.9995 11.5806 34.7735 12.8885 34.3214 14.1673C33.8693 15.4462 33.0745 16.8485 31.937 18.3744C30.7995 19.9003 29.2683 21.6224 27.3433 23.5406C25.4183 25.4589 22.9828 27.7404 20.037 30.3853L17.4995 32.6523Z" fill="white"/>
</svg>
