<svg width="65" height="40" viewBox="0 0 65 40" fill="none" xmlns="http://www.w3.org/2000/svg">
<path d="M24.5105 4.60667C24.4874 4.57868 24.4643 4.55073 24.4406 4.52344C24.4511 4.53531 24.4615 4.54722 24.4713 4.5591C24.4846 4.57517 24.4979 4.59056 24.5105 4.60667Z" fill="#343175"/>
<path d="M23.4229 5.48714C23.409 5.47034 23.3957 5.45358 23.381 5.4375C23.3887 5.44518 23.3957 5.45357 23.4027 5.46197C23.4097 5.47037 23.4166 5.47877 23.4229 5.48714Z" fill="#343175"/>
<path d="M31.8901 23.8584C31.9957 24.036 32.1041 24.2136 32.2153 24.3912L31.881 23.871L31.8901 23.8584Z" fill="#343175"/>
<path d="M35.1106 28.1973C35.2302 28.3273 35.3504 28.456 35.4728 28.5833C35.3497 28.4553 35.2288 28.3267 35.1106 28.1973Z" fill="#343175"/>
<path d="M39.6332 23.4166C38.8206 24.9313 37.8479 26.42 36.7262 27.8669C36.2934 27.427 35.878 26.9725 35.4815 26.5026C34.7654 25.6557 34.134 24.7893 33.5689 23.9103C34.227 22.9858 34.8123 22.0481 35.32 21.1019C37.0779 17.8279 37.7849 15.0964 37.4814 12.7524C37.2905 11.2734 36.6115 9.79234 35.5696 8.58255C35.1528 8.09795 34.6836 7.66506 34.1794 7.29376C33.4591 6.76159 32.6654 6.356 31.8459 6.10706C31.8116 6.09728 31.7773 6.08747 31.7438 6.07697C31.7396 6.07556 31.7347 6.07419 31.7305 6.07277C30.9256 5.84342 30.0837 5.75599 29.2445 5.79864C28.106 5.85599 26.9732 6.15246 25.9466 6.65667C25.5256 5.95808 25.0634 5.28747 24.5452 4.6497C24.5341 4.63501 24.5222 4.62103 24.5103 4.60633C24.4872 4.57835 24.4641 4.5504 24.4404 4.5231C23.9215 3.91401 23.3509 3.35179 22.7355 2.84131C23.6725 2.2707 24.6928 1.81337 25.7753 1.48189C27.1431 1.06301 28.5402 0.867218 29.9186 0.895203C30.7906 0.912689 31.6556 1.01967 32.5004 1.21756H32.501C32.6926 1.26231 32.8828 1.31126 33.0716 1.36513C35.4499 2.04273 37.596 3.43434 39.2792 5.38885C39.9946 6.21958 40.5967 7.1182 41.0764 8.06501L41.0771 8.0657C41.4925 8.88315 41.8162 9.73699 42.0435 10.6146C42.1722 11.1111 42.2701 11.6153 42.3358 12.1251C42.7751 15.5174 41.8904 19.2111 39.6332 23.4166Z" fill="#343175"/>
<path d="M61.5677 23.4167C59.8692 26.5824 57.4028 29.7124 54.4371 32.469C51.5224 35.1781 48.1071 37.5445 44.5603 39.313C44.2163 39.4843 43.8421 39.5703 43.468 39.5703C43.11 39.5703 42.752 39.492 42.4205 39.3347C38.4632 37.4613 35.1843 35.2137 32.4626 32.5054C31.3142 31.3626 30.2371 30.104 29.2781 28.7831C26.2473 24.6097 24.7082 20.3021 23.3299 16.4448C22.5852 14.3602 21.9069 12.4624 21.0859 10.861C20.2734 9.2736 19.2447 7.88481 17.6881 6.96386C15.7958 5.84428 13.4385 5.47366 11.3357 6.07295C9.90148 6.48202 8.53786 7.37293 7.49663 8.58268C6.45468 9.79244 5.77567 11.2735 5.58477 12.7518C5.28199 15.0959 5.98826 17.8273 7.74557 21.102C10.5189 26.2684 15.6195 31.1585 21.5334 34.364C23.9257 33.069 26.19 31.4998 28.234 29.7257C28.6613 30.3082 29.1172 30.8893 29.6053 31.4669C30.1822 32.1501 30.7864 32.8074 31.4193 33.4403C28.7599 35.7458 25.7767 37.7416 22.6257 39.3129C22.2817 39.4842 21.9075 39.5703 21.5334 39.5703C21.1593 39.5703 20.7852 39.4842 20.4412 39.3129C16.895 37.5451 13.4791 35.1787 10.5644 32.4697C7.59803 29.7124 5.13164 26.5823 3.43236 23.4167C1.17504 19.2104 0.291158 15.5168 0.730313 12.1246C1.0471 9.67286 2.10371 7.34353 3.78691 5.38902C5.47011 3.43451 7.61621 2.04293 9.99449 1.3653C12.3378 0.697484 14.8609 0.738034 17.2909 1.4821C18.3734 1.81355 19.3936 2.27088 20.3307 2.84152C22.5873 4.21561 24.2348 6.28413 25.4334 8.61346C26.4089 10.5148 27.1606 12.6183 27.9396 14.798C29.013 17.8007 30.1116 20.8769 31.8899 23.858C33.2404 26.1219 34.919 28.1872 36.8829 29.9474C38.7534 31.6271 40.9233 33.0935 43.438 34.3802C49.3652 31.1739 54.4777 26.2768 57.2545 21.1021C59.0126 17.828 59.7195 15.0966 59.416 12.7526C59.2251 11.2735 58.5461 9.79248 57.5042 8.58268C56.4622 7.37293 55.0993 6.48202 53.6651 6.07295C50.7343 5.23801 47.3099 6.28554 45.3379 8.62117C44.8729 9.1715 44.189 9.48898 43.468 9.48898C43.3666 9.48898 43.2653 9.48268 43.166 9.47008C42.9401 8.7729 42.6583 8.09038 42.324 7.43234L42.231 7.25052L42.2282 7.24701C41.7128 6.26519 41.0779 5.33446 40.3387 4.47642C39.0311 2.95756 37.4681 1.74639 35.7395 0.898853C36.9031 0.935202 38.0751 1.12962 39.2254 1.48206C40.7904 1.96108 42.2247 2.70373 43.468 3.66944C44.7106 2.70301 46.1449 1.96108 47.7099 1.48206C50.1399 0.738033 52.663 0.69745 55.0063 1.36527C57.3845 2.04286 59.5307 3.43447 61.2138 5.38898C62.897 7.3435 63.9537 9.67283 64.2704 12.1252C64.7096 15.5176 63.825 19.2112 61.5677 23.4167Z" fill="#343175"/>
</svg>
