<svg width="65" height="40" viewBox="0 0 65 40" fill="none" xmlns="http://www.w3.org/2000/svg">
<path d="M24.8746 4.60667C24.8515 4.57868 24.8284 4.55073 24.8047 4.52344C24.8152 4.53531 24.8256 4.54722 24.8355 4.5591C24.8487 4.57517 24.862 4.59056 24.8746 4.60667Z" fill="#EBEFFF"/>
<path d="M23.7871 5.48714C23.7731 5.47034 23.7598 5.45358 23.7451 5.4375C23.7528 5.44518 23.7598 5.45357 23.7668 5.46197C23.7738 5.47037 23.7808 5.47877 23.7871 5.48714Z" fill="#EBEFFF"/>
<path d="M32.2542 23.8584C32.3598 24.036 32.4682 24.2136 32.5794 24.3912L32.2451 23.871L32.2542 23.8584Z" fill="#EBEFFF"/>
<path d="M35.4747 28.1973C35.5943 28.3273 35.7146 28.456 35.837 28.5833C35.7139 28.4553 35.5929 28.3267 35.4747 28.1973Z" fill="#EBEFFF"/>
<path d="M39.9973 23.4166C39.1847 24.9313 38.212 26.42 37.0904 27.8669C36.6575 27.427 36.2421 26.9725 35.8456 26.5026C35.1296 25.6557 34.4981 24.7893 33.9331 23.9103C34.5911 22.9858 35.1764 22.0481 35.6841 21.1019C37.4421 17.8279 38.1491 15.0964 37.8456 12.7524C37.6547 11.2734 36.9757 9.79234 35.9337 8.58255C35.5169 8.09795 35.0477 7.66506 34.5435 7.29376C33.8232 6.76159 33.0295 6.356 32.21 6.10706C32.1757 6.09728 32.1415 6.08747 32.1079 6.07697C32.1037 6.07556 32.0988 6.07419 32.0946 6.07277C31.2897 5.84342 30.4478 5.75599 29.6086 5.79864C28.4702 5.85599 27.3373 6.15246 26.3108 6.65667C25.8898 5.95808 25.4276 5.28747 24.9094 4.6497C24.8982 4.63501 24.8863 4.62103 24.8744 4.60633C24.8513 4.57835 24.8282 4.5504 24.8045 4.5231C24.2856 3.91401 23.715 3.35179 23.0996 2.84131C24.0366 2.2707 25.0569 1.81337 26.1394 1.48189C27.5072 1.06301 28.9044 0.867218 30.2827 0.895203C31.1547 0.912689 32.0197 1.01967 32.8645 1.21756H32.8652C33.0568 1.26231 33.247 1.31126 33.4358 1.36513C35.8141 2.04273 37.9602 3.43434 39.6434 5.38885C40.3587 6.21958 40.9608 7.1182 41.4405 8.06501L41.4412 8.0657C41.8566 8.88315 42.1804 9.73699 42.4077 10.6146C42.5363 11.1111 42.6342 11.6153 42.7 12.1251C43.1392 15.5174 42.2546 19.2111 39.9973 23.4166Z" fill="#EBEFFF"/>
<path d="M61.9318 23.4167C60.2333 26.5824 57.7669 29.7124 54.8012 32.469C51.8866 35.1781 48.4713 37.5445 44.9245 39.313C44.5804 39.4843 44.2063 39.5703 43.8322 39.5703C43.4742 39.5703 43.1161 39.492 42.7847 39.3347C38.8274 37.4613 35.5484 35.2137 32.8268 32.5054C31.6783 31.3626 30.6012 30.104 29.6422 28.7831C26.6115 24.6097 25.0723 20.3021 23.6941 16.4448C22.9493 14.3602 22.271 12.4624 21.4501 10.861C20.6375 9.2736 19.6088 7.88481 18.0522 6.96386C16.1599 5.84428 13.8026 5.47366 11.6998 6.07295C10.2656 6.48202 8.90199 7.37293 7.86076 8.58268C6.81881 9.79244 6.13981 11.2735 5.9489 12.7518C5.64613 15.0959 6.3524 17.8273 8.1097 21.102C10.8831 26.2684 15.9837 31.1585 21.8976 34.364C24.2898 33.069 26.5541 31.4998 28.5981 29.7257C29.0254 30.3082 29.4813 30.8893 29.9694 31.4669C30.5464 32.1501 31.1505 32.8074 31.7834 33.4403C29.124 35.7458 26.1408 37.7416 22.9898 39.3129C22.6458 39.4842 22.2717 39.5703 21.8976 39.5703C21.5234 39.5703 21.1493 39.4842 20.8053 39.3129C17.2592 37.5451 13.8432 35.1787 10.9285 32.4697C7.96217 29.7124 5.49577 26.5823 3.7965 23.4167C1.53918 19.2104 0.655293 15.5168 1.09445 12.1246C1.41123 9.67286 2.46785 7.34353 4.15105 5.38902C5.83424 3.43451 7.98035 2.04293 10.3586 1.3653C12.7019 0.697484 15.225 0.738034 17.655 1.4821C18.7375 1.81355 19.7578 2.27088 20.6948 2.84152C22.9514 4.21561 24.5989 6.28413 25.7975 8.61346C26.773 10.5148 27.5248 12.6183 28.3038 14.798C29.3772 17.8007 30.4758 20.8769 32.2541 23.858C33.6045 26.1219 35.2832 28.1872 37.247 29.9474C39.1176 31.6271 41.2875 33.0935 43.8021 34.3802C49.7293 31.1739 54.8418 26.2768 57.6187 21.1021C59.3767 17.828 60.0837 15.0966 59.7802 12.7526C59.5893 11.2735 58.9103 9.79248 57.8683 8.58268C56.8263 7.37293 55.4634 6.48202 54.0292 6.07295C51.0985 5.23801 47.674 6.28554 45.7021 8.62117C45.237 9.1715 44.5531 9.48898 43.8322 9.48898C43.7308 9.48898 43.6294 9.48268 43.5301 9.47008C43.3042 8.7729 43.0224 8.09038 42.6881 7.43234L42.5951 7.25052L42.5923 7.24701C42.077 6.26519 41.442 5.33446 40.7029 4.47642C39.3952 2.95756 37.8323 1.74639 36.1036 0.898853C37.2672 0.935202 38.4393 1.12962 39.5896 1.48206C41.1546 1.96108 42.5888 2.70373 43.8321 3.66944C45.0748 2.70301 46.509 1.96108 48.074 1.48206C50.504 0.738033 53.0271 0.69745 55.3704 1.36527C57.7487 2.04286 59.8948 3.43447 61.578 5.38898C63.2612 7.3435 64.3178 9.67283 64.6346 12.1252C65.0738 15.5176 64.1892 19.2112 61.9318 23.4167Z" fill="#EBEFFF"/>
</svg>
